<svg xmlns="http://www.w3.org/2000/svg" xmlns:xlink="http://www.w3.org/1999/xlink" id="Layer_2" viewBox="0 0 831.24 115.04"><defs><style>.cls-1{fill:url(#linear-gradient);}.cls-1,.cls-2,.cls-3,.cls-4,.cls-5,.cls-6,.cls-7,.cls-8{stroke-width:0px;}.cls-2{fill:#4809bd;}.cls-3{fill:url(#linear-gradient-4);}.cls-4{fill:url(#linear-gradient-2);}.cls-5{fill:url(#linear-gradient-3);}.cls-6{fill:url(#linear-gradient-7);}.cls-7{fill:url(#linear-gradient-5);}.cls-8{fill:url(#linear-gradient-6);}</style><linearGradient id="linear-gradient" x1="215.21" y1=".78" x2="215.21" y2="113.35" gradientUnits="userSpaceOnUse"><stop offset="0" stop-color="#ed1c24"></stop><stop offset="1" stop-color="blue"></stop></linearGradient><linearGradient id="linear-gradient-2" x1="246.41" y1=".78" x2="246.41" y2="113.35" xlink:href="#linear-gradient"></linearGradient><linearGradient id="linear-gradient-3" x1="303.86" y1=".78" x2="303.86" y2="113.35" xlink:href="#linear-gradient"></linearGradient><linearGradient id="linear-gradient-4" x1="74.05" y1=".78" x2="74.05" y2="113.35" xlink:href="#linear-gradient"></linearGradient><linearGradient id="linear-gradient-5" x1="11.49" y1=".78" x2="11.49" y2="113.35" xlink:href="#linear-gradient"></linearGradient><linearGradient id="linear-gradient-6" x1="64.6" y1=".78" x2="64.6" y2="113.35" xlink:href="#linear-gradient"></linearGradient><linearGradient id="linear-gradient-7" x1="132.28" y1=".78" x2="132.28" y2="113.35" xlink:href="#linear-gradient"></linearGradient></defs><g id="Q"><rect class="cls-2" x="390.27" y="0" width="440.96" height="5.37"></rect><rect class="cls-2" x="390.27" y="109.67" width="440.96" height="5.37"></rect><path class="cls-2" d="M395.99,18.11v27.91h-5.6v-27.91h5.6Z"></path><path class="cls-2" d="M420.19,26.04c1.63,1.67,2.44,3.99,2.44,6.98v13h-5.6v-12.24c0-1.76-.44-3.11-1.32-4.06s-2.08-1.42-3.6-1.42-2.77.47-3.66,1.42-1.34,2.3-1.34,4.06v12.24h-5.6v-22.15h5.6v2.76c.75-.96,1.7-1.71,2.86-2.26,1.16-.55,2.43-.82,3.82-.82,2.64,0,4.77.83,6.4,2.5Z"></path><path class="cls-2" d="M427.84,28.9c.89-1.73,2.11-3.07,3.66-4s3.27-1.4,5.16-1.4c1.44,0,2.81.31,4.12.94,1.31.63,2.34,1.46,3.12,2.5v-10.52h5.68v29.59h-5.68v-3.28c-.69,1.09-1.67,1.97-2.92,2.64-1.25.67-2.71,1-4.36,1-1.87,0-3.57-.48-5.12-1.44s-2.77-2.31-3.66-4.06-1.34-3.75-1.34-6.02.45-4.23,1.34-5.96ZM443.14,31.44c-.53-.97-1.25-1.72-2.16-2.24s-1.88-.78-2.92-.78-2,.25-2.88.76c-.88.51-1.59,1.25-2.14,2.22-.55.97-.82,2.13-.82,3.46s.27,2.5.82,3.5c.55,1,1.27,1.77,2.16,2.3s1.85.8,2.86.8,2.01-.26,2.92-.78,1.63-1.27,2.16-2.24.8-2.14.8-3.5-.27-2.52-.8-3.5Z"></path><path class="cls-2" d="M455.44,20.28c-.65-.63-.98-1.4-.98-2.34s.33-1.71.98-2.34c.65-.63,1.47-.94,2.46-.94s1.81.31,2.46.94c.65.63.98,1.41.98,2.34s-.33,1.71-.98,2.34c-.65.63-1.47.94-2.46.94s-1.81-.31-2.46-.94ZM460.65,23.86v22.15h-5.6v-22.15h5.6Z"></path><path class="cls-2" d="M466.07,28.9c.89-1.73,2.1-3.07,3.64-4,1.53-.93,3.24-1.4,5.14-1.4,1.65,0,3.1.33,4.34,1,1.24.67,2.23,1.51,2.98,2.52v-3.16h5.64v22.15h-5.64v-3.24c-.72,1.04-1.71,1.9-2.98,2.58-1.27.68-2.73,1.02-4.38,1.02-1.87,0-3.57-.48-5.1-1.44-1.53-.96-2.75-2.31-3.64-4.06-.89-1.75-1.34-3.75-1.34-6.02s.44-4.23,1.34-5.96ZM481.37,31.44c-.53-.97-1.25-1.72-2.16-2.24s-1.88-.78-2.92-.78-2,.25-2.88.76-1.59,1.25-2.14,2.22c-.55.97-.82,2.13-.82,3.46s.27,2.5.82,3.5,1.27,1.77,2.16,2.3c.89.53,1.85.8,2.86.8s2.01-.26,2.92-.78,1.63-1.27,2.16-2.24.8-2.14.8-3.5-.27-2.52-.8-3.5Z"></path><path class="cls-2" d="M511.96,26.04c1.63,1.67,2.44,3.99,2.44,6.98v13h-5.6v-12.24c0-1.76-.44-3.11-1.32-4.06-.88-.95-2.08-1.42-3.6-1.42s-2.77.47-3.66,1.42-1.34,2.3-1.34,4.06v12.24h-5.6v-22.15h5.6v2.76c.75-.96,1.7-1.71,2.86-2.26,1.16-.55,2.43-.82,3.82-.82,2.64,0,4.77.83,6.4,2.5Z"></path><path class="cls-2" d="M546.47,18.11v4.52h-11.64v7.16h8.92v4.44h-8.92v11.8h-5.6v-27.91h17.24Z"></path><path class="cls-2" d="M554.51,44.96c-1.71-.95-3.05-2.29-4.02-4.02-.97-1.73-1.46-3.73-1.46-6s.5-4.27,1.5-6c1-1.73,2.37-3.07,4.1-4.02,1.73-.95,3.67-1.42,5.8-1.42s4.07.47,5.8,1.42c1.73.95,3.1,2.29,4.1,4.02,1,1.73,1.5,3.73,1.5,6s-.51,4.27-1.54,6c-1.03,1.73-2.41,3.07-4.16,4.02-1.75.95-3.7,1.42-5.86,1.42s-4.05-.47-5.76-1.42ZM563.12,40.76c.89-.49,1.61-1.23,2.14-2.22s.8-2.19.8-3.6c0-2.1-.55-3.73-1.66-4.86-1.11-1.13-2.46-1.7-4.06-1.7s-2.94.57-4.02,1.7c-1.08,1.13-1.62,2.75-1.62,4.86s.53,3.73,1.58,4.86,2.38,1.7,3.98,1.7c1.01,0,1.96-.25,2.86-.74Z"></path><path class="cls-2" d="M596.85,23.86v22.15h-5.64v-2.8c-.72.96-1.66,1.71-2.82,2.26-1.16.55-2.42.82-3.78.82-1.73,0-3.27-.37-4.6-1.1-1.33-.73-2.38-1.81-3.14-3.24-.76-1.42-1.14-3.12-1.14-5.1v-13h5.6v12.2c0,1.76.44,3.11,1.32,4.06s2.08,1.42,3.6,1.42,2.76-.47,3.64-1.42,1.32-2.3,1.32-4.06v-12.2h5.64Z"></path><path class="cls-2" d="M621.05,26.04c1.63,1.67,2.44,3.99,2.44,6.98v13h-5.6v-12.24c0-1.76-.44-3.11-1.32-4.06-.88-.95-2.08-1.42-3.6-1.42s-2.77.47-3.66,1.42c-.89.95-1.34,2.3-1.34,4.06v12.24h-5.6v-22.15h5.6v2.76c.75-.96,1.7-1.71,2.86-2.26,1.16-.55,2.43-.82,3.82-.82,2.64,0,4.77.83,6.4,2.5Z"></path><path class="cls-2" d="M628.7,28.9c.89-1.73,2.11-3.07,3.66-4,1.55-.93,3.27-1.4,5.16-1.4,1.44,0,2.81.31,4.12.94s2.35,1.46,3.12,2.5v-10.52h5.68v29.59h-5.68v-3.28c-.69,1.09-1.67,1.97-2.92,2.64-1.25.67-2.71,1-4.36,1-1.87,0-3.57-.48-5.12-1.44-1.54-.96-2.77-2.31-3.66-4.06s-1.34-3.75-1.34-6.02.45-4.23,1.34-5.96ZM644,31.44c-.53-.97-1.25-1.72-2.16-2.24-.91-.52-1.88-.78-2.92-.78s-2,.25-2.88.76c-.88.51-1.59,1.25-2.14,2.22-.55.97-.82,2.13-.82,3.46s.27,2.5.82,3.5,1.27,1.77,2.16,2.3c.89.53,1.84.8,2.86.8s2.01-.26,2.92-.78c.9-.52,1.63-1.27,2.16-2.24s.8-2.14.8-3.5-.27-2.52-.8-3.5Z"></path><path class="cls-2" d="M655.82,28.9c.89-1.73,2.1-3.07,3.64-4s3.25-1.4,5.14-1.4c1.65,0,3.1.33,4.34,1,1.24.67,2.23,1.51,2.98,2.52v-3.16h5.64v22.15h-5.64v-3.24c-.72,1.04-1.71,1.9-2.98,2.58-1.27.68-2.73,1.02-4.38,1.02-1.87,0-3.57-.48-5.1-1.44s-2.75-2.31-3.64-4.06c-.89-1.75-1.34-3.75-1.34-6.02s.45-4.23,1.34-5.96ZM671.11,31.44c-.53-.97-1.25-1.72-2.16-2.24s-1.88-.78-2.92-.78-2,.25-2.88.76c-.88.51-1.59,1.25-2.14,2.22-.55.97-.82,2.13-.82,3.46s.27,2.5.82,3.5,1.27,1.77,2.16,2.3,1.85.8,2.86.8,2.01-.26,2.92-.78,1.63-1.27,2.16-2.24.8-2.14.8-3.5-.27-2.52-.8-3.5Z"></path><path class="cls-2" d="M689.55,28.46v10.72c0,.75.18,1.29.54,1.62.36.33.97.5,1.82.5h2.6v4.72h-3.52c-4.72,0-7.08-2.29-7.08-6.88v-10.68h-2.64v-4.6h2.64v-5.48h5.64v5.48h4.96v4.6h-4.96Z"></path><path class="cls-2" d="M698.92,20.28c-.66-.63-.98-1.4-.98-2.34s.32-1.71.98-2.34c.65-.63,1.47-.94,2.46-.94s1.81.31,2.46.94c.65.63.98,1.41.98,2.34s-.33,1.71-.98,2.34c-.65.63-1.47.94-2.46.94s-1.81-.31-2.46-.94ZM704.14,23.86v22.15h-5.6v-22.15h5.6Z"></path><path class="cls-2" d="M713.74,44.96c-1.71-.95-3.05-2.29-4.02-4.02-.97-1.73-1.46-3.73-1.46-6s.5-4.27,1.5-6c1-1.73,2.37-3.07,4.1-4.02,1.73-.95,3.67-1.42,5.8-1.42s4.07.47,5.8,1.42c1.73.95,3.1,2.29,4.1,4.02,1,1.73,1.5,3.73,1.5,6s-.51,4.27-1.54,6c-1.03,1.73-2.41,3.07-4.16,4.02-1.75.95-3.7,1.42-5.86,1.42s-4.05-.47-5.76-1.42ZM722.35,40.76c.89-.49,1.61-1.23,2.14-2.22s.8-2.19.8-3.6c0-2.1-.55-3.73-1.66-4.86-1.11-1.13-2.46-1.7-4.06-1.7s-2.94.57-4.02,1.7c-1.08,1.13-1.62,2.75-1.62,4.86s.53,3.73,1.58,4.86,2.38,1.7,3.98,1.7c1.01,0,1.96-.25,2.86-.74Z"></path><path class="cls-2" d="M753.84,26.04c1.63,1.67,2.44,3.99,2.44,6.98v13h-5.6v-12.24c0-1.76-.44-3.11-1.32-4.06s-2.08-1.42-3.6-1.42-2.77.47-3.66,1.42c-.89.95-1.34,2.3-1.34,4.06v12.24h-5.6v-22.15h5.6v2.76c.75-.96,1.7-1.71,2.86-2.26s2.43-.82,3.82-.82c2.64,0,4.77.83,6.4,2.5Z"></path><path class="cls-2" d="M788.35,18.11v4.52h-11.64v7.16h8.92v4.44h-8.92v11.8h-5.6v-27.91h17.23Z"></path><path class="cls-2" d="M796.39,44.96c-1.71-.95-3.05-2.29-4.02-4.02-.97-1.73-1.46-3.73-1.46-6s.5-4.27,1.5-6c1-1.73,2.37-3.07,4.1-4.02s3.66-1.42,5.8-1.42,4.06.47,5.8,1.42c1.73.95,3.1,2.29,4.1,4.02,1,1.73,1.5,3.73,1.5,6s-.51,4.27-1.54,6c-1.03,1.73-2.41,3.07-4.16,4.02s-3.7,1.42-5.86,1.42-4.05-.47-5.76-1.42ZM805.01,40.76c.89-.49,1.61-1.23,2.14-2.22s.8-2.19.8-3.6c0-2.1-.55-3.73-1.66-4.86-1.11-1.13-2.46-1.7-4.06-1.7s-2.94.57-4.02,1.7c-1.08,1.13-1.62,2.75-1.62,4.86s.52,3.73,1.58,4.86,2.38,1.7,3.98,1.7c1.01,0,1.97-.25,2.86-.74Z"></path><path class="cls-2" d="M826.24,24.54c1.16-.67,2.48-1,3.98-1v5.88h-1.48c-1.76,0-3.09.41-3.98,1.24s-1.34,2.27-1.34,4.32v11.04h-5.6v-22.15h5.6v3.44c.72-1.17,1.66-2.09,2.82-2.76Z"></path><path class="cls-2" d="M411.19,98.92l-4.24-5.08c-1.17.29-2.37.44-3.6.44-2.61,0-5.01-.61-7.2-1.84-2.19-1.23-3.92-2.92-5.2-5.1-1.28-2.17-1.92-4.63-1.92-7.38s.64-5.16,1.92-7.34c1.28-2.17,3.01-3.87,5.2-5.1,2.19-1.23,4.59-1.84,7.2-1.84s5.05.61,7.22,1.84c2.17,1.23,3.89,2.93,5.16,5.1,1.27,2.17,1.9,4.62,1.9,7.34,0,2.48-.53,4.74-1.58,6.78s-2.49,3.7-4.3,4.98l6.4,7.2h-6.96ZM395.87,84.89c.72,1.41,1.73,2.5,3.02,3.26,1.29.76,2.78,1.14,4.46,1.14s3.16-.38,4.44-1.14c1.28-.76,2.28-1.85,3-3.26.72-1.41,1.08-3.05,1.08-4.92s-.36-3.5-1.08-4.9c-.72-1.4-1.72-2.47-3-3.22-1.28-.75-2.76-1.12-4.44-1.12s-3.17.37-4.46,1.12c-1.29.75-2.3,1.82-3.02,3.22-.72,1.4-1.08,3.03-1.08,4.9s.36,3.51,1.08,4.92Z"></path><path class="cls-2" d="M442.78,71.85v22.15h-5.64v-2.8c-.72.96-1.66,1.71-2.82,2.26-1.16.55-2.42.82-3.78.82-1.73,0-3.27-.37-4.6-1.1-1.33-.73-2.38-1.81-3.14-3.24-.76-1.42-1.14-3.12-1.14-5.1v-13h5.6v12.2c0,1.76.44,3.11,1.32,4.06s2.08,1.42,3.6,1.42,2.76-.47,3.64-1.42,1.32-2.3,1.32-4.06v-12.2h5.64Z"></path><path class="cls-2" d="M448.2,76.89c.89-1.73,2.1-3.07,3.64-4s3.25-1.4,5.14-1.4c1.65,0,3.1.33,4.34,1,1.24.67,2.23,1.51,2.98,2.52v-3.16h5.64v22.15h-5.64v-3.24c-.72,1.04-1.71,1.9-2.98,2.58-1.27.68-2.73,1.02-4.38,1.02-1.87,0-3.57-.48-5.1-1.44s-2.75-2.31-3.64-4.06-1.34-3.75-1.34-6.02.45-4.23,1.34-5.96ZM463.49,79.43c-.53-.97-1.25-1.72-2.16-2.24-.91-.52-1.88-.78-2.92-.78s-2,.25-2.88.76c-.88.51-1.59,1.25-2.14,2.22-.55.97-.82,2.13-.82,3.46s.27,2.5.82,3.5,1.27,1.77,2.16,2.3c.89.53,1.84.8,2.86.8s2.01-.26,2.92-.78c.9-.52,1.63-1.27,2.16-2.24s.8-2.14.8-3.5-.27-2.52-.8-3.5Z"></path><path class="cls-2" d="M481.01,64.41v29.59h-5.6v-29.59h5.6Z"></path><path class="cls-2" d="M486.91,68.27c-.66-.63-.98-1.4-.98-2.34s.32-1.71.98-2.34c.65-.63,1.47-.94,2.46-.94s1.81.31,2.46.94c.65.63.98,1.41.98,2.34s-.33,1.71-.98,2.34c-.65.63-1.47.94-2.46.94s-1.81-.31-2.46-.94ZM492.13,71.85v22.15h-5.6v-22.15h5.6Z"></path><path class="cls-2" d="M504.16,76.45v10.72c0,.75.18,1.29.54,1.62.36.33.97.5,1.82.5h2.6v4.72h-3.52c-4.72,0-7.08-2.29-7.08-6.88v-10.68h-2.64v-4.6h2.64v-5.48h5.64v5.48h4.96v4.6h-4.96Z"></path><path class="cls-2" d="M534.35,71.85l-13.72,32.63h-5.96l4.8-11.04-8.88-21.59h6.28l5.72,15.48,5.8-15.48h5.96Z"></path><path class="cls-2" d="M577.3,66.09v27.91h-5.6v-18.15l-7.48,18.15h-4.24l-7.52-18.15v18.15h-5.6v-27.91h6.36l8.88,20.75,8.88-20.75h6.32Z"></path><path class="cls-2" d="M582.72,76.89c.89-1.73,2.1-3.07,3.64-4,1.53-.93,3.25-1.4,5.14-1.4,1.65,0,3.1.33,4.34,1,1.24.67,2.23,1.51,2.98,2.52v-3.16h5.64v22.15h-5.64v-3.24c-.72,1.04-1.71,1.9-2.98,2.58-1.27.68-2.73,1.02-4.38,1.02-1.87,0-3.57-.48-5.1-1.44-1.53-.96-2.75-2.31-3.64-4.06-.89-1.75-1.34-3.75-1.34-6.02s.45-4.23,1.34-5.96ZM598.01,79.43c-.54-.97-1.25-1.72-2.16-2.24s-1.88-.78-2.92-.78-2,.25-2.88.76-1.59,1.25-2.14,2.22c-.55.97-.82,2.13-.82,3.46s.27,2.5.82,3.5c.55,1,1.27,1.77,2.16,2.3s1.85.8,2.86.8,2.01-.26,2.92-.78,1.63-1.27,2.16-2.24c.53-.97.8-2.14.8-3.5s-.27-2.52-.8-3.5Z"></path><path class="cls-2" d="M628.6,74.03c1.63,1.67,2.44,3.99,2.44,6.98v13h-5.6v-12.24c0-1.76-.44-3.11-1.32-4.06-.88-.95-2.08-1.42-3.6-1.42s-2.77.47-3.66,1.42-1.34,2.3-1.34,4.06v12.24h-5.6v-22.15h5.6v2.76c.75-.96,1.7-1.71,2.86-2.26,1.16-.55,2.43-.82,3.82-.82,2.64,0,4.77.83,6.4,2.5Z"></path><path class="cls-2" d="M636.26,76.89c.89-1.73,2.1-3.07,3.64-4s3.25-1.4,5.14-1.4c1.65,0,3.1.33,4.34,1,1.24.67,2.23,1.51,2.98,2.52v-3.16h5.64v22.15h-5.64v-3.24c-.72,1.04-1.71,1.9-2.98,2.58-1.27.68-2.73,1.02-4.38,1.02-1.87,0-3.57-.48-5.1-1.44s-2.75-2.31-3.64-4.06-1.34-3.75-1.34-6.02.45-4.23,1.34-5.96ZM651.56,79.43c-.53-.97-1.25-1.72-2.16-2.24-.91-.52-1.88-.78-2.92-.78s-2,.25-2.88.76c-.88.51-1.59,1.25-2.14,2.22-.55.97-.82,2.13-.82,3.46s.27,2.5.82,3.5,1.27,1.77,2.16,2.3c.89.53,1.84.8,2.86.8s2.01-.26,2.92-.78c.9-.52,1.63-1.27,2.16-2.24s.8-2.14.8-3.5-.27-2.52-.8-3.5Z"></path><path class="cls-2" d="M676.51,72.47c1.25.65,2.24,1.5,2.96,2.54v-3.16h5.64v22.31c0,2.05-.41,3.88-1.24,5.5-.83,1.61-2.07,2.89-3.72,3.84-1.65.95-3.65,1.42-6,1.42-3.14,0-5.72-.73-7.74-2.2s-3.15-3.47-3.42-6h5.56c.29,1.01.92,1.82,1.9,2.42.97.6,2.15.9,3.54.9,1.63,0,2.94-.49,3.96-1.46s1.52-2.45,1.52-4.42v-3.44c-.72,1.04-1.71,1.91-2.98,2.6-1.27.69-2.71,1.04-4.34,1.04-1.87,0-3.57-.48-5.12-1.44-1.55-.96-2.77-2.31-3.66-4.06-.89-1.75-1.34-3.75-1.34-6.02s.45-4.23,1.34-5.96c.89-1.73,2.1-3.07,3.64-4,1.53-.93,3.25-1.4,5.14-1.4,1.65,0,3.1.33,4.36.98ZM678.67,79.43c-.54-.97-1.25-1.72-2.16-2.24s-1.88-.78-2.92-.78-2,.25-2.88.76-1.59,1.25-2.14,2.22c-.55.97-.82,2.13-.82,3.46s.27,2.5.82,3.5c.55,1,1.27,1.77,2.16,2.3s1.85.8,2.86.8,2.01-.26,2.92-.78,1.63-1.27,2.16-2.24c.53-.97.8-2.14.8-3.5s-.27-2.52-.8-3.5Z"></path><path class="cls-2" d="M711.02,84.61h-16.19c.13,1.6.69,2.85,1.68,3.76s2.2,1.36,3.64,1.36c2.08,0,3.56-.89,4.44-2.68h6.04c-.64,2.13-1.87,3.89-3.68,5.26-1.81,1.37-4.04,2.06-6.68,2.06-2.13,0-4.05-.47-5.74-1.42-1.69-.95-3.01-2.29-3.96-4.02-.95-1.73-1.42-3.73-1.42-6s.46-4.31,1.4-6.04c.93-1.73,2.24-3.07,3.92-4,1.68-.93,3.61-1.4,5.8-1.4s3.99.45,5.66,1.36c1.67.91,2.96,2.19,3.88,3.86.92,1.67,1.38,3.58,1.38,5.74,0,.8-.05,1.52-.16,2.16ZM705.38,80.85c-.03-1.44-.55-2.59-1.56-3.46s-2.25-1.3-3.72-1.3c-1.39,0-2.55.42-3.5,1.26-.95.84-1.53,2.01-1.74,3.5h10.52Z"></path><path class="cls-2" d="M749.34,74.03c1.67,1.67,2.5,3.99,2.5,6.98v13h-5.6v-12.24c0-1.73-.44-3.06-1.32-3.98s-2.08-1.38-3.6-1.38-2.73.46-3.62,1.38c-.89.92-1.34,2.25-1.34,3.98v12.24h-5.6v-12.24c0-1.73-.44-3.06-1.32-3.98s-2.08-1.38-3.6-1.38-2.77.46-3.66,1.38c-.89.92-1.34,2.25-1.34,3.98v12.24h-5.6v-22.15h5.6v2.68c.72-.93,1.65-1.67,2.78-2.2s2.38-.8,3.74-.8c1.73,0,3.28.37,4.64,1.1,1.36.73,2.41,1.78,3.16,3.14.72-1.28,1.77-2.31,3.14-3.08,1.37-.77,2.86-1.16,4.46-1.16,2.72,0,4.91.83,6.58,2.5Z"></path><path class="cls-2" d="M777.6,84.61h-16.2c.13,1.6.69,2.85,1.68,3.76s2.2,1.36,3.64,1.36c2.08,0,3.56-.89,4.44-2.68h6.04c-.64,2.13-1.87,3.89-3.68,5.26s-4.04,2.06-6.68,2.06c-2.13,0-4.05-.47-5.74-1.42-1.69-.95-3.01-2.29-3.96-4.02-.95-1.73-1.42-3.73-1.42-6s.47-4.31,1.4-6.04c.93-1.73,2.24-3.07,3.92-4s3.61-1.4,5.8-1.4,3.99.45,5.66,1.36,2.96,2.19,3.88,3.86c.92,1.67,1.38,3.58,1.38,5.74,0,.8-.05,1.52-.16,2.16ZM771.96,80.85c-.03-1.44-.55-2.59-1.56-3.46s-2.25-1.3-3.72-1.3c-1.39,0-2.55.42-3.5,1.26-.95.84-1.53,2.01-1.74,3.5h10.52Z"></path><path class="cls-2" d="M800.51,74.03c1.63,1.67,2.44,3.99,2.44,6.98v13h-5.6v-12.24c0-1.76-.44-3.11-1.32-4.06s-2.08-1.42-3.6-1.42-2.77.47-3.66,1.42-1.34,2.3-1.34,4.06v12.24h-5.6v-22.15h5.6v2.76c.75-.96,1.7-1.71,2.86-2.26,1.16-.55,2.43-.82,3.82-.82,2.64,0,4.77.83,6.4,2.5Z"></path><path class="cls-2" d="M814.78,76.45v10.72c0,.75.18,1.29.54,1.62.36.33.97.5,1.82.5h2.6v4.72h-3.52c-4.72,0-7.08-2.29-7.08-6.88v-10.68h-2.64v-4.6h2.64v-5.48h5.64v5.48h4.96v4.6h-4.96Z"></path><path class="cls-1" d="M192.28,42.66c1.16,4.74,1.78,9.69,1.78,14.79,0,7.4-1.3,14.49-3.66,21.08l22.81,30.18c4.62,6.12,12.5,7.95,17.6,4.1l9.23-6.97-8.37-11.07-39.38-52.1Z"></path><path class="cls-4" d="M222.15,6.18c-4.62-6.12-12.5-7.95-17.6-4.1l-9.23,6.97,8.37,11.07,66.96,88.59c4.62,6.12,12.5,7.95,17.6,4.1l9.23-6.97-8.37-11.07L222.15,6.18Z"></path><path class="cls-5" d="M346.57,94.77L279.61,6.18c-4.62-6.12-12.5-7.95-17.6-4.1l-9.23,6.97,8.37,11.07,66.96,88.59c4.62,6.12,12.5,7.95,17.6,4.1l9.23-6.97-8.37-11.07Z"></path><path class="cls-3" d="M39.58,22.98h80.43v-11.49c0-6.35-5.14-11.49-11.49-11.49H28.09v11.49c0,6.35,5.14,11.49,11.49,11.49Z"></path><path class="cls-7" d="M11.49,0H0v103.41c0,6.35,5.14,11.49,11.49,11.49h11.49V11.49C22.98,5.14,17.84,0,11.49,0Z"></path><path class="cls-8" d="M89.54,65.64h11.57v-11.57c0-6.35-5.14-11.49-11.49-11.49H28.09v72.32h11.57c6.31-.05,11.41-5.17,11.41-11.49v-26.36c0-6.35,5.14-11.49,11.49-11.49h26.98v.08Z"></path><path class="cls-6" d="M131.5,0c-3.48,0-6.88.33-10.2.92,2.38,2.87,3.81,6.56,3.81,10.57v12.08c2.07-.39,4.2-.62,6.38-.62,19.02,0,34.5,15.48,34.5,34.5,0,8.34-2.97,15.99-7.92,21.96l-9.02-11.85c-4.62-6.12-12.5-7.95-17.6-4.1l-9.23,6.97,8.37,11.07,7.46,9.8c-2.13.41-4.32.64-6.56.64-14.31,0-26.61-8.76-31.82-21.2h-15.24v-.08h-8.84c5.97,25.35,28.73,44.23,55.91,44.23,7.64,0,14.92-1.5,21.59-4.21,4.68,4.48,11.33,5.52,15.82,2.12l9.23-6.97-5.93-7.85c10.35-10.39,16.75-24.72,16.75-40.54,0-31.73-25.72-57.45-57.45-57.45Z"></path></g></svg>